# xmcd
#
# Track frame offsets: 
#        150
#        40810
#        72572
#        105610
#        139210
#        168460
#        198010
#        243122
#        279310
#
# Disc length: 4026 seconds
#
# Revision: 5
# Processed by: cddbd v1.5.1PL2 Copyright (c) Steve Scherf et al.
# Submitted via: ExactAudioCopy v0.95b3
#
DISCID=7a0fb809
DTITLE=Chesky (Coleman, Stern, Carter, Cobb) - 4 Generations Of Miles
DYEAR=2002
DGENRE=Jazz
TTITLE0=There Is No Greater Love
TTITLE1=All Blues
TTITLE2=On Green Dolphin Street
TTITLE3=Blue In Green
TTITLE4=81
TTITLE5=Freddie Freeloader
TTITLE6=My Funny Valentine
TTITLE7=If I Were A Bell
TTITLE8=Oleo
EXTD=
EXTT0=
EXTT1=
EXTT2=
EXTT3=
EXTT4=
EXTT5=
EXTT6=
EXTT7=
EXTT8=
PLAYORDER=
